#!OML:ASF F:\twosubjects\two\Thursday\Session 1\justin.ASF
:FULLY-SPECIFIED
:DEGREES
328
root 9.26196 17.9712 -1.26066 -172.078 23.5616 183.587
lowerback 4.7104 3.60948 -2.58573
upperback -0.617238 4.87677 3.59448
thorax -3.81065 2.5618 4.77245
lowerneck -22.2111 -1.79369 -9.33459
upperneck 27.2084 3.90356 -5.25563
head 12.8939 0.448191 0.303432
rclavicle -3.17062e-014 2.22639e-014
rhumerus 18.8245 15.2662 -85.3011
rradius 94.283
rwrist -22.5619
rhand -55.7136 45.7009
rfingers 7.12502
rthumb -28.0624 17.7797
lclavicle -3.17062e-014 2.22639e-014
lhumerus 38.9254 -3.78215 82.0958
lradius 37.6467
lwrist 7.55242
lhand -30.9871 42.6836
lfingers 7.12502
lthumb -4.27066 432.621
rfemur -15.7329 -4.15344 12.294
rtibia 34.201
rfoot -19.6817 -6.35193
rtoes -15.2227
lfemur -15.9141 2.54122 -15.0267
ltibia 29.1367
lfoot -15.2661 -0.307541
ltoes -21.9072
329
root 9.22162 17.9687 -1.28415 -172.114 23.7648 183.706
lowerback 4.53662 3.43791 -2.84877
upperback -0.600747 4.65417 3.85388
thorax -3.7161 2.4633 5.22467
lowerneck -22.0608 -1.7556 -9.8521
upperneck 27.3778 4.07629 -4.95486
head 12.9173 0.514702 0.535075
rclavicle 1.75924e-014 -2.14687e-014
rhumerus 18.8207 15.6379 -85.3926
rradius 93.2965
rwrist -23.897
rhand -55.8621 42.4216
rfingers 7.12502
rthumb -28.2044 14.5238
lclavicle 1.75924e-014 -2.14687e-014
lhumerus 38.3467 -3.20393 82.3529
lradius 38.1355
lwrist 7.26746
lhand -31.6646 42.89
lfingers 7.12502
lthumb -4.92488 432.813
rfemur -15.7843 -4.12629 12.2448
rtibia 34.3565
rfoot -19.5451 -6.31971
rtoes -16.3343
lfemur -15.7467 2.8038 -15.0937
ltibia 29.0277
lfoot -15.2761 -0.433428
ltoes -22.097
330
root 9.18512 17.9723 -1.30022 -172.117 23.9953 183.664
lowerback 4.37535 3.50634 -3.21661
upperback -0.681381 4.7293 3.89259
thorax -3.75219 2.51152 5.47355
lowerneck -21.7205 -1.87573 -9.85954
upperneck 27.3731 3.87308 -4.96634
head 12.8517 0.435175 0.49733
rclavicle 4.1049e-014 -5.56597e-015
rhumerus 18.5958 15.3192 -85.4244
rradius 92.6298
rwrist -24.9865
rhand -56.3157 39.4196
rfingers 7.12502
rthumb -28.6379 11.5941
lclavicle 4.1049e-014 -5.56597e-015
lhumerus 38.3769 -3.16453 82.9852
lradius 37.8738
lwrist 6.64319
lhand -32.0309 42.9112
lfingers 7.12502
lthumb -5.2786 432.825
rfemur -16.0009 -4.15856 12.0794
rtibia 34.5385
rfoot -19.1437 -6.2994
rtoes -17.221
lfemur -15.6736 3.10113 -15.3051
ltibia 28.8439
lfoot -15.2084 -0.728783
ltoes -21.4208
331
root 9.13191 17.9818 -1.32207 -172.297 23.8582 183.29
lowerback 4.36117 3.76923 -3.30613
upperback -0.819901 5.03872 3.44122
thorax -3.89196 2.6566 5.01766
lowerneck -21.429 -2.24532 -9.34703
upperneck 27.5163 3.04309 -4.79306
head 12.8585 0.13571 0.336132
rclavicle -3.74212e-014 0
rhumerus 18.1 13.8107 -85.8187
rradius 92.4296
rwrist -25.6126
rhand -56.4947 35.9442
rfingers 7.12502
rthumb -28.8089 8.14774
lclavicle -3.74212e-014 0
lhumerus 38.4871 -4.51216 83.1196
lradius 37.8666
lwrist 6.53518
lhand -31.9114 43.0246
lfingers 7.12502
lthumb -5.16318 432.942
rfemur -16.1227 -4.60336 11.5832
rtibia 34.7459
rfoot -18.6614 -6.50066
rtoes -19.2063
lfemur -15.5481 2.92541 -15.8866
ltibia 28.5632
lfoot -14.9707 -1.00895
ltoes -20.3327
332
root 9.07805 17.9853 -1.34909 -172.599 23.7149 183.043
lowerback 4.49426 3.44206 -3.57671
upperback -0.797147 4.59357 3.6075
thorax -3.92803 2.44563 5.38005
lowerneck -21.0413 -2.25175 -9.93889
upperneck 27.061 3.08885 -4.65745
head 12.5907 0.139182 0.49329
rclavicle -5.76476e-015 1.51076e-014
rhumerus 17.9038 14.338 -86.0033
rradius 92.3921
rwrist -26.4915
rhand -56.3677 30.2649
rfingers 7.12502
rthumb -28.6876 2.4478
lclavicle -5.76476e-015 1.51076e-014
lhumerus 38.0203 -3.81692 83.3274
lradius 38.3082
lwrist 6.31226
lhand -32.0862 43.0628
lfingers 7.12502
lthumb -5.33197 432.976
rfemur -15.9636 -4.57449 11.1423
rtibia 34.966
rfoot -18.5034 -6.92026
rtoes -19.1207
lfemur -15.1781 2.59654 -16.3212
ltibia 28.2401
lfoot -14.7032 -0.972457
ltoes -19.6366
333
root 9.03422 17.9813 -1.37219 -172.675 23.7623 182.876
lowerback 4.41809 3.40655 -3.82169
upperback -0.844443 4.53389 3.62368
thorax -3.94829 2.42297 5.54459
lowerneck -20.1883 -2.391 -10.7146
upperneck 26.3749 2.7307 -4.04251
head 12.1345 0.0220361 0.792203
rclavicle -6.83819e-014 8.74653e-015
rhumerus 17.6463 14.2396 -85.9571
rradius 92.5339
rwrist -27.1369
rhand -57.0301 32.4405
rfingers 7.12502
rthumb -29.3202 4.73229
lclavicle -6.83819e-014 8.74653e-015
lhumerus 37.67 -3.90471 83.5479
lradius 38.788
lwrist 5.88149
lhand -32.3631 43.4261
lfingers 7.12502
lthumb -5.59929 433.332
rfemur -16.0221 -4.39134 10.7794
rtibia 35.1673
rfoot -18.4456 -7.07629
rtoes -17.6523
lfemur -15.0191 2.45788 -16.6361
ltibia 27.9344
lfoot -14.5146 -0.866874
ltoes -18.6628
334
root 8.99224 17.9837 -1.39602 -172.58 23.8359 182.7
lowerback 3.95907 3.43374 -3.92787
upperback -0.738135 4.55876 3.44361
thorax -3.57494 2.42047 5.44294
lowerneck -20.0459 -2.429 -11.1545
upperneck 25.9969 2.46184 -3.27959
head 11.9402 -0.0441494 1.10154
rclavicle 9.54166e-015 1.11319e-014
rhumerus 17.5747 13.7577 -86.1233
rradius 93.0003
rwrist -26.8674
rhand -56.9017 31.3845
rfingers 7.12502
rthumb -29.1976 3.6549
lclavicle 9.54166e-015 1.11319e-014
lhumerus 37.9132 -4.39946 83.3286
lradius 38.9876
lwrist 5.47573
lhand -32.2534 44.218
lfingers 7.12502
lthumb -5.49337 434.127
rfemur -16.3769 -4.59862 10.4818
rtibia 35.354
rfoot -17.878 -7.15563
rtoes -19.3341
lfemur -15.0715 2.41543 -16.9771
ltibia 27.6622
lfoot -14.4662 -1.05144
ltoes -17.5534
335
root 8.95247 17.9864 -1.4212 -172.611 23.9181 182.922
lowerback 3.89401 3.54278 -3.67692
upperback -0.564203 4.71011 3.33703
thorax -3.34619 2.47918 5.18573
lowerneck -20.4765 -2.53991 -10.8547
upperneck 25.9299 2.16639 -3.16619
head 12.0027 -0.15741 1.04344
rclavicle -3.96575e-014 7.15625e-015
rhumerus 17.2869 12.9965 -86.4644
rradius 93.857
rwrist -25.9501
rhand -56.5167 31.9645
rfingers 7.12502
rthumb -28.8299 4.17165
lclavicle -3.96575e-014 7.15625e-015
lhumerus 38.3055 -5.10427 83.0219
lradius 39.0269
lwrist 5.44317
lhand -32.3549 44.7727
lfingers 7.12502
lthumb -5.59141 434.679
rfemur -16.4514 -4.67039 10.5948
rtibia 35.5605
rfoot -17.0916 -7.58459
rtoes -21.6595
lfemur -14.7557 2.43873 -16.9134
ltibia 27.3988
lfoot -14.5587 -1.12825
ltoes -17.8002
336
root 8.91466 17.9886 -1.43848 -172.644 23.8258 183.206
lowerback 4.23359 3.63651 -3.49834
upperback -0.683719 4.83889 3.32401
thorax -3.66084 2.54879 5.03481
lowerneck -20.8463 -2.73719 -10.4214
upperneck 26.2722 1.84838 -3.28734
head 12.2236 -0.298745 0.874657
rclavicle 7.43952e-014 -1.11319e-014
rhumerus 16.444 12.2681 -86.744
rradius 94.8862
rwrist -24.8165
rhand -56.3465 35.426
rfingers 7.12502
rthumb -28.6673 7.6055
lclavicle 7.43952e-014 -1.11319e-014
lhumerus 38.1513 -5.9773 82.8
lradius 39.2139
lwrist 5.57409
lhand -32.8898 45.2665
lfingers 7.12502
lthumb -6.10779 435.158
rfemur -16.4054 -4.65107 10.8033
rtibia 35.777
rfoot -16.6516 -8.15051
rtoes -21.6932
lfemur -14.4409 2.49434 -16.7488
ltibia 27.137
lfoot -14.7041 -0.985789
ltoes -18.8173
337
root 8.87505 17.9981 -1.45193 -172.653 23.5514 183.009
lowerback 4.40158 3.48089 -3.81622
upperback -0.935558 4.6097 3.31842
thorax -4.01683 2.4534 5.21148
lowerneck -21.0302 -2.76315 -10.4461
upperneck 26.6574 1.90344 -3.2817
head 12.4138 -0.288741 0.89139
rclavicle -6.49032e-014 3.97569e-015
rhumerus 15.6924 12.1725 -86.9652
rradius 95.799
rwrist -23.4904
rhand -56.0149 38.237
rfingers 7.12502
rthumb -28.3505 10.3634
lclavicle -6.49032e-014 3.97569e-015
lhumerus 37.6807 -6.36191 82.4042
lradius 39.4872
lwrist 5.5067
lhand -33.405 46.1159
lfingers 7.12502
lthumb -6.60517 435.993
rfemur -16.5051 -4.62992 10.5222
rtibia 35.9436
rfoot -16.5748 -8.45625
rtoes -20.1966
lfemur -14.388 2.50849 -17.0801
ltibia 26.8759
lfoot -15.0301 -0.982294
ltoes -19.8833
338
root 8.83285 18.0091 -1.47139 -172.63 23.3939 182.885
lowerback 4.32313 3.36433 -3.87629
upperback -1.00347 4.4481 3.26141
thorax -4.02349 2.37393 5.20354
lowerneck -21.0491 -2.80851 -10.5035
upperneck 26.6105 1.88926 -3.37777
head 12.4033 -0.31203 0.861338
rclavicle -3.43401e-014 4.09496e-014
rhumerus 15.3896 11.9634 -87.2978
rradius 96.4147
rwrist -21.8069
rhand -55.5079 38.929
rfingers 7.12502
rthumb -27.8658 10.9758
lclavicle -3.43401e-014 4.09496e-014
lhumerus 37.5211 -6.57323 82.123
lradius 39.6022
lwrist 5.1199
lhand -33.7607 46.7668
lfingers 7.12502
lthumb -6.94858 436.633
rfemur -16.6116 -4.59687 10.233
rtibia 36.0559
rfoot -16.5176 -8.60109
rtoes -17.6953
lfemur -14.3084 2.6496 -17.387
ltibia 26.597
lfoot -15.3114 -1.30185
ltoes -20.6914
339
root 8.79264 18.0187 -1.49627 -172.482 23.3952 183.078
lowerback 3.97637 3.48927 -3.51364
upperback -0.862567 4.63279 3.11438
thorax -3.66081 2.44347 4.85269
lowerneck -21.0026 -3.07487 -10.362
upperneck 26.1144 1.36431 -3.42004
head 12.2124 -0.534944 0.730562
rclavicle -2.5842e-015 4.05521e-014
rhumerus 15.3688 11.1303 -87.5698
rradius 96.9886
rwrist -20.0438
rhand -55.1469 39.8313
rfingers 7.12502
rthumb -27.5206 11.8227
lclavicle -2.5842e-015 4.05521e-014
lhumerus 37.7823 -7.23048 82.0905
lradius 39.6855
lwrist 4.53288
lhand -33.7669 46.7461
lfingers 7.12502
lthumb -6.95454 436.612
rfemur -16.7058 -4.57241 10.2848
rtibia 36.0914
rfoot -16.3637 -8.75665
rtoes -15.9011
lfemur -14.2395 2.81455 -17.3698
ltibia 26.2814
lfoot -15.0893 -1.51465
ltoes -20.548
340
root 8.7546 18.0279 -1.52929 -172.507 23.3936 183.173
lowerback 3.6874 3.8052 -3.28569
upperback -0.662701 5.05384 2.86061
thorax -3.29423 2.63099 4.45002
lowerneck -20.9667 -3.5135 -10.1666
upperneck 25.7414 0.50703 -3.22376
head 12.0784 -0.881066 0.626709
rclavicle 1.43622e-014 -9.54166e-015
rhumerus 15.2532 9.78166 -87.5699
rradius 97.8814
rwrist -18.484
rhand -54.9672 41.1981
rfingers 7.12502
rthumb -27.3487 13.1622
lclavicle 1.43622e-014 -9.54166e-015
lhumerus 38.2492 -8.5451 81.9567
lradius 39.8463
lwrist 4.18197
lhand -33.5881 46.7878
lfingers 7.12502
lthumb -6.782 436.659
rfemur -16.6067 -4.51437 10.3104
rtibia 36.0919
rfoot -16.2168 -9.14317
rtoes -16.661
lfemur -14.0171 2.56815 -17.4187
ltibia 26.0282
lfoot -14.7512 -1.38836
ltoes -19.4296
341
root 8.7229 18.0374 -1.57037 -172.906 23.6666 183.296
lowerback 3.92441 3.94194 -3.1913
upperback -0.432391 5.23419 2.86158
thorax -3.19894 2.71314 4.37578
lowerneck -21.2144 -3.67441 -10.4582
upperneck 25.6457 0.286756 -2.92989
head 12.0968 -0.981149 0.743327
rclavicle -1.86858e-014 -8.34896e-015
rhumerus 15.0218 9.03314 -87.7994
rradius 98.9188
rwrist -15.9465
rhand -54.35 38.7221
rfingers 7.12502
rthumb -26.7583 10.5945
lclavicle -1.86858e-014 -8.34896e-015
lhumerus 38.4872 -9.02993 81.5964
lradius 39.9921
lwrist 3.92843
lhand -33.5669 47.4586
lfingers 7.12502
lthumb -6.76144 437.331
rfemur -16.1127 -4.32309 10.35
rtibia 35.9856
rfoot -15.9303 -9.49757
rtoes -18.0711
lfemur -13.2645 2.24715 -17.46
ltibia 25.8293
lfoot -14.7713 -1.02395
ltoes -18.4819
